<svg width="28" height="28" viewBox="0 0 31 30" fill="none" xmlns="http://www.w3.org/2000/svg"><path id="Vector" d="M30.6252 28.1746C28.3722 24.2292 24.9002 21.4002 20.8483 20.0591C22.8526 18.8505 24.4097 17.009 25.2807 14.8172C26.1517 12.6255 26.2883 10.2048 25.6696 7.92681C25.0508 5.64883 23.7109 3.63956 21.8557 2.20755C20.0005 0.775552 17.7324 0 15.3999 0C13.0674 0 10.7994 0.775552 8.94415 2.20755C7.08891 3.63956 5.74904 5.64883 5.1303 7.92681C4.51156 10.2048 4.64816 12.6255 5.51914 14.8172C6.39011 17.009 7.94729 18.8505 9.95154 20.0591C5.89964 21.3987 2.42764 24.2277 0.174615 28.1746C0.0919928 28.311 0.0371899 28.4628 0.01344 28.6211C-0.0103099 28.7794 -0.00252563 28.9408 0.0363334 29.096C0.0751925 29.2512 0.144339 29.3969 0.239694 29.5245C0.335049 29.6522 0.454679 29.7592 0.591529 29.8393C0.728378 29.9193 0.879673 29.9708 1.03649 29.9907C1.1933 30.0106 1.35246 29.9985 1.50457 29.955C1.65668 29.9116 1.79866 29.8377 1.92213 29.7378C2.04561 29.6379 2.14808 29.514 2.22349 29.3733C5.01056 24.4944 9.93674 21.5815 15.3999 21.5815C20.8631 21.5815 25.7893 24.4944 28.5764 29.3733C28.6518 29.514 28.7542 29.6379 28.8777 29.7378C29.0012 29.8377 29.1432 29.9116 29.2953 29.955C29.4474 29.9985 29.6066 30.0106 29.7634 29.9907C29.9202 29.9708 30.0715 29.9193 30.2083 29.8393C30.3452 29.7592 30.4648 29.6522 30.5602 29.5245C30.6555 29.3969 30.7247 29.2512 30.7635 29.096C30.8024 28.9408 30.8102 28.7794 30.7864 28.6211C30.7627 28.4628 30.7079 28.311 30.6252 28.1746ZM7.11565 10.7928C7.11565 9.13315 7.60152 7.51079 8.5118 6.13087C9.42209 4.75094 10.7159 3.67542 12.2297 3.04031C13.7434 2.4052 15.4091 2.23902 17.0161 2.5628C18.6231 2.88657 20.0992 3.68576 21.2578 4.85929C22.4164 6.03282 23.2054 7.52799 23.525 9.15573C23.8447 10.7835 23.6806 12.4707 23.0536 14.0039C22.4266 15.5372 21.3648 16.8478 20.0024 17.7698C18.6401 18.6918 17.0384 19.184 15.3999 19.184C13.2035 19.1816 11.0977 18.2968 9.54466 16.7236C7.99156 15.1505 7.118 13.0175 7.11565 10.7928Z" fill="#3b1a6e"></path></svg>
